# xmcd
#
# Track frame offsets:
#	150
#	12593
#	26052
#	35468
#	53531
#	67914
#	85191
#	98266
#	112358
#	127529
#	139223
#	148852
#	157711
#	167845
#	182041
#	189535
# Disc length: 2758 seconds
# Revision: 3
# Processed by: cddbd v1.5.2PL0 Copyright (c) Steve Scherf et al.
#
# Submitted via: libkcddb 0.21
#
DISCID=cd0ac410
DTITLE=Eric Lugosch - Black Key Blues
DYEAR=1998
DGENRE=Instrumental
TTITLE0=Cajun Cook
TTITLE1=Eigths Of January
TTITLE2=Stars Up Above
TTITLE3=There's a Destruction
TTITLE4=Colored Aristocracy
TTITLE5=Strike
TTITLE6=Black Key Blues
TTITLE7=Sandy's Dream
TTITLE8=God Bless the Child
TTITLE9=Manganese
TTITLE10=Four Roses
TTITLE11=The Last Garden
TTITLE12=Pork Belly Futures
TTITLE13=De Rigueur
TTITLE14=Glory Of Love
TTITLE15=Looking Back
EXTD=YEAR: 1998
EXTT0=
EXTT1=
EXTT2=
EXTT3=
EXTT4=
EXTT5=
EXTT6=
EXTT7=
EXTT8=
EXTT9=
EXTT10=
EXTT11=
EXTT12=
EXTT13=
EXTT14=
EXTT15=
PLAYORDER=
